<mxfile host="Electron" agent="Mozilla/5.0 (Windows NT 10.0; Win64; x64) AppleWebKit/537.36 (KHTML, like Gecko) draw.io/28.1.2 Chrome/138.0.7204.243 Electron/37.4.0 Safari/537.36" version="28.1.2">
  <diagram name="Page-1" id="Y9J1XSsfATlauHUJhRs6">
    <mxGraphModel dx="2153" dy="903" grid="1" gridSize="10" guides="1" tooltips="1" connect="1" arrows="1" fold="1" page="1" pageScale="1" pageWidth="850" pageHeight="1100" math="0" shadow="0">
      <root>
        <mxCell id="0" />
        <mxCell id="1" parent="0" />
        <mxCell id="CZakEDAY33qDEsklR2cS-1" value="crm_cust_info" style="swimlane;fontStyle=0;childLayout=stackLayout;horizontal=1;startSize=30;horizontalStack=0;resizeParent=1;resizeParentMax=0;resizeLast=0;collapsible=1;marginBottom=0;whiteSpace=wrap;html=1;rounded=1;fontSize=26;fillColor=#1ba1e2;fontColor=#ffffff;strokeColor=#006EAF;" parent="1" vertex="1">
          <mxGeometry x="410" y="290" width="190" height="110" as="geometry" />
        </mxCell>
        <mxCell id="CZakEDAY33qDEsklR2cS-2" value="cst_id" style="text;strokeColor=none;fillColor=none;align=left;verticalAlign=middle;spacingLeft=4;spacingRight=4;overflow=hidden;points=[[0,0.5],[1,0.5]];portConstraint=eastwest;rotatable=0;whiteSpace=wrap;html=1;fontSize=26;" parent="CZakEDAY33qDEsklR2cS-1" vertex="1">
          <mxGeometry y="30" width="190" height="40" as="geometry" />
        </mxCell>
        <mxCell id="_NYqM_aks8vBF1bfTSib-6" value="cst_key" style="text;strokeColor=none;fillColor=none;align=left;verticalAlign=middle;spacingLeft=4;spacingRight=4;overflow=hidden;points=[[0,0.5],[1,0.5]];portConstraint=eastwest;rotatable=0;whiteSpace=wrap;html=1;fontSize=26;" parent="CZakEDAY33qDEsklR2cS-1" vertex="1">
          <mxGeometry y="70" width="190" height="40" as="geometry" />
        </mxCell>
        <mxCell id="CZakEDAY33qDEsklR2cS-9" value="&lt;font style=&quot;font-size: 16px;&quot;&gt;Customer Information&lt;/font&gt;" style="text;html=1;align=center;verticalAlign=middle;whiteSpace=wrap;rounded=0;" parent="1" vertex="1">
          <mxGeometry x="395" y="260" width="220" height="30" as="geometry" />
        </mxCell>
        <mxCell id="CZakEDAY33qDEsklR2cS-12" value="crm_prod_info" style="swimlane;fontStyle=0;childLayout=stackLayout;horizontal=1;startSize=30;horizontalStack=0;resizeParent=1;resizeParentMax=0;resizeLast=0;collapsible=1;marginBottom=0;whiteSpace=wrap;html=1;rounded=1;fontSize=26;fillColor=#1ba1e2;fontColor=#ffffff;strokeColor=#006EAF;" parent="1" vertex="1">
          <mxGeometry x="420" y="480" width="190" height="70" as="geometry" />
        </mxCell>
        <mxCell id="CZakEDAY33qDEsklR2cS-13" value="prd_key" style="text;strokeColor=none;fillColor=none;align=left;verticalAlign=middle;spacingLeft=4;spacingRight=4;overflow=hidden;points=[[0,0.5],[1,0.5]];portConstraint=eastwest;rotatable=0;whiteSpace=wrap;html=1;fontSize=26;" parent="CZakEDAY33qDEsklR2cS-12" vertex="1">
          <mxGeometry y="30" width="190" height="40" as="geometry" />
        </mxCell>
        <mxCell id="CZakEDAY33qDEsklR2cS-14" value="&lt;font style=&quot;font-size: 16px;&quot;&gt;Current &amp;amp; History Production Information&lt;/font&gt;" style="text;html=1;align=center;verticalAlign=middle;whiteSpace=wrap;rounded=0;" parent="1" vertex="1">
          <mxGeometry x="395" y="450" width="220" height="30" as="geometry" />
        </mxCell>
        <mxCell id="CZakEDAY33qDEsklR2cS-20" style="edgeStyle=orthogonalEdgeStyle;rounded=0;orthogonalLoop=1;jettySize=auto;html=1;entryX=0;entryY=0.25;entryDx=0;entryDy=0;" parent="1" source="CZakEDAY33qDEsklR2cS-15" target="CZakEDAY33qDEsklR2cS-12" edge="1">
          <mxGeometry relative="1" as="geometry">
            <Array as="points">
              <mxPoint x="320" y="425" />
              <mxPoint x="320" y="498" />
            </Array>
          </mxGeometry>
        </mxCell>
        <mxCell id="CZakEDAY33qDEsklR2cS-15" value="crm_sales_details" style="swimlane;fontStyle=0;childLayout=stackLayout;horizontal=1;startSize=30;horizontalStack=0;resizeParent=1;resizeParentMax=0;resizeLast=0;collapsible=1;marginBottom=0;whiteSpace=wrap;html=1;rounded=1;fontSize=26;fillColor=#1ba1e2;fontColor=#ffffff;strokeColor=#006EAF;" parent="1" vertex="1">
          <mxGeometry x="20" y="370" width="210" height="110" as="geometry" />
        </mxCell>
        <mxCell id="CZakEDAY33qDEsklR2cS-16" value="cst_id" style="text;strokeColor=none;fillColor=none;align=left;verticalAlign=middle;spacingLeft=4;spacingRight=4;overflow=hidden;points=[[0,0.5],[1,0.5]];portConstraint=eastwest;rotatable=0;whiteSpace=wrap;html=1;fontSize=26;" parent="CZakEDAY33qDEsklR2cS-15" vertex="1">
          <mxGeometry y="30" width="210" height="40" as="geometry" />
        </mxCell>
        <mxCell id="CZakEDAY33qDEsklR2cS-17" value="prd_key" style="text;strokeColor=none;fillColor=none;align=left;verticalAlign=middle;spacingLeft=4;spacingRight=4;overflow=hidden;points=[[0,0.5],[1,0.5]];portConstraint=eastwest;rotatable=0;whiteSpace=wrap;html=1;fontSize=26;" parent="CZakEDAY33qDEsklR2cS-15" vertex="1">
          <mxGeometry y="70" width="210" height="40" as="geometry" />
        </mxCell>
        <mxCell id="CZakEDAY33qDEsklR2cS-18" style="edgeStyle=orthogonalEdgeStyle;rounded=0;orthogonalLoop=1;jettySize=auto;html=1;entryX=0.025;entryY=0.34;entryDx=0;entryDy=0;entryPerimeter=0;" parent="1" source="CZakEDAY33qDEsklR2cS-16" target="CZakEDAY33qDEsklR2cS-2" edge="1">
          <mxGeometry relative="1" as="geometry" />
        </mxCell>
        <mxCell id="CZakEDAY33qDEsklR2cS-21" value="&lt;font style=&quot;font-size: 16px;&quot;&gt;Transactional Records about Sales and orders&lt;/font&gt;" style="text;html=1;align=center;verticalAlign=middle;whiteSpace=wrap;rounded=0;" parent="1" vertex="1">
          <mxGeometry x="20" y="340" width="220" height="30" as="geometry" />
        </mxCell>
        <mxCell id="_NYqM_aks8vBF1bfTSib-1" value="erp_cust_az12" style="swimlane;fontStyle=0;childLayout=stackLayout;horizontal=1;startSize=30;horizontalStack=0;resizeParent=1;resizeParentMax=0;resizeLast=0;collapsible=1;marginBottom=0;whiteSpace=wrap;html=1;rounded=1;fontSize=26;fillColor=#f0a30a;fontColor=#000000;strokeColor=#BD7000;" parent="1" vertex="1">
          <mxGeometry x="875" y="400" width="190" height="70" as="geometry" />
        </mxCell>
        <mxCell id="_NYqM_aks8vBF1bfTSib-2" value="cid" style="text;strokeColor=none;fillColor=none;align=left;verticalAlign=middle;spacingLeft=4;spacingRight=4;overflow=hidden;points=[[0,0.5],[1,0.5]];portConstraint=eastwest;rotatable=0;whiteSpace=wrap;html=1;fontSize=26;" parent="_NYqM_aks8vBF1bfTSib-1" vertex="1">
          <mxGeometry y="30" width="190" height="40" as="geometry" />
        </mxCell>
        <mxCell id="_NYqM_aks8vBF1bfTSib-3" value="&lt;font style=&quot;font-size: 16px;&quot;&gt;Extra Customer Information (birthdate)&lt;/font&gt;" style="text;html=1;align=center;verticalAlign=middle;whiteSpace=wrap;rounded=0;" parent="1" vertex="1">
          <mxGeometry x="845" y="360" width="220" height="30" as="geometry" />
        </mxCell>
        <mxCell id="_NYqM_aks8vBF1bfTSib-7" style="edgeStyle=orthogonalEdgeStyle;rounded=0;orthogonalLoop=1;jettySize=auto;html=1;entryX=0.984;entryY=0.336;entryDx=0;entryDy=0;entryPerimeter=0;" parent="1" source="_NYqM_aks8vBF1bfTSib-2" target="_NYqM_aks8vBF1bfTSib-6" edge="1">
          <mxGeometry relative="1" as="geometry" />
        </mxCell>
        <mxCell id="_NYqM_aks8vBF1bfTSib-8" value="erp_loc_a101" style="swimlane;fontStyle=0;childLayout=stackLayout;horizontal=1;startSize=30;horizontalStack=0;resizeParent=1;resizeParentMax=0;resizeLast=0;collapsible=1;marginBottom=0;whiteSpace=wrap;html=1;rounded=1;fontSize=26;fillColor=#f0a30a;fontColor=#000000;strokeColor=#BD7000;" parent="1" vertex="1">
          <mxGeometry x="875" y="240" width="190" height="70" as="geometry" />
        </mxCell>
        <mxCell id="_NYqM_aks8vBF1bfTSib-9" value="cid" style="text;strokeColor=none;fillColor=none;align=left;verticalAlign=middle;spacingLeft=4;spacingRight=4;overflow=hidden;points=[[0,0.5],[1,0.5]];portConstraint=eastwest;rotatable=0;whiteSpace=wrap;html=1;fontSize=26;" parent="_NYqM_aks8vBF1bfTSib-8" vertex="1">
          <mxGeometry y="30" width="190" height="40" as="geometry" />
        </mxCell>
        <mxCell id="_NYqM_aks8vBF1bfTSib-10" value="&lt;span style=&quot;font-size: 16px;&quot;&gt;Location of Customers (Country)&lt;/span&gt;" style="text;html=1;align=center;verticalAlign=middle;whiteSpace=wrap;rounded=0;" parent="1" vertex="1">
          <mxGeometry x="845" y="200" width="220" height="30" as="geometry" />
        </mxCell>
        <mxCell id="_NYqM_aks8vBF1bfTSib-11" style="edgeStyle=orthogonalEdgeStyle;rounded=0;orthogonalLoop=1;jettySize=auto;html=1;entryX=1.011;entryY=0.336;entryDx=0;entryDy=0;entryPerimeter=0;" parent="1" source="_NYqM_aks8vBF1bfTSib-9" target="_NYqM_aks8vBF1bfTSib-6" edge="1">
          <mxGeometry relative="1" as="geometry" />
        </mxCell>
        <mxCell id="_NYqM_aks8vBF1bfTSib-12" value="erp_px_cat_g1v2" style="swimlane;fontStyle=0;childLayout=stackLayout;horizontal=1;startSize=30;horizontalStack=0;resizeParent=1;resizeParentMax=0;resizeLast=0;collapsible=1;marginBottom=0;whiteSpace=wrap;html=1;rounded=1;fontSize=26;fillColor=#f0a30a;fontColor=#000000;strokeColor=#BD7000;" parent="1" vertex="1">
          <mxGeometry x="860" y="600" width="205" height="70" as="geometry" />
        </mxCell>
        <mxCell id="_NYqM_aks8vBF1bfTSib-13" value="id" style="text;strokeColor=none;fillColor=none;align=left;verticalAlign=middle;spacingLeft=4;spacingRight=4;overflow=hidden;points=[[0,0.5],[1,0.5]];portConstraint=eastwest;rotatable=0;whiteSpace=wrap;html=1;fontSize=26;" parent="_NYqM_aks8vBF1bfTSib-12" vertex="1">
          <mxGeometry y="30" width="205" height="40" as="geometry" />
        </mxCell>
        <mxCell id="_NYqM_aks8vBF1bfTSib-14" value="&lt;span style=&quot;font-size: 16px;&quot;&gt;Product Categories&lt;/span&gt;" style="text;html=1;align=center;verticalAlign=middle;whiteSpace=wrap;rounded=0;" parent="1" vertex="1">
          <mxGeometry x="845" y="560" width="220" height="30" as="geometry" />
        </mxCell>
        <mxCell id="_NYqM_aks8vBF1bfTSib-15" style="edgeStyle=orthogonalEdgeStyle;rounded=0;orthogonalLoop=1;jettySize=auto;html=1;entryX=1;entryY=0.5;entryDx=0;entryDy=0;" parent="1" source="_NYqM_aks8vBF1bfTSib-13" target="CZakEDAY33qDEsklR2cS-13" edge="1">
          <mxGeometry relative="1" as="geometry" />
        </mxCell>
        <mxCell id="_NYqM_aks8vBF1bfTSib-19" value="" style="rounded=0;whiteSpace=wrap;html=1;fillColor=none;" parent="1" vertex="1">
          <mxGeometry x="-10" y="155" width="640" height="560" as="geometry" />
        </mxCell>
        <mxCell id="_NYqM_aks8vBF1bfTSib-20" value="" style="rounded=0;whiteSpace=wrap;html=1;fillColor=none;" parent="1" vertex="1">
          <mxGeometry x="680" y="155" width="590" height="560" as="geometry" />
        </mxCell>
        <mxCell id="_NYqM_aks8vBF1bfTSib-22" value="&lt;b&gt;&lt;font style=&quot;font-size: 30px;&quot;&gt;CRM&lt;/font&gt;&lt;/b&gt;" style="rounded=1;whiteSpace=wrap;html=1;" parent="1" vertex="1">
          <mxGeometry x="170" y="130" width="210" height="60" as="geometry" />
        </mxCell>
        <mxCell id="_NYqM_aks8vBF1bfTSib-23" value="&lt;span style=&quot;font-size: 30px;&quot;&gt;&lt;b&gt;ERP&lt;/b&gt;&lt;/span&gt;" style="rounded=1;whiteSpace=wrap;html=1;" parent="1" vertex="1">
          <mxGeometry x="855" y="120" width="210" height="60" as="geometry" />
        </mxCell>
        <mxCell id="xIH687tK5126t1SRCQGh-2" value="&lt;font style=&quot;font-size: 20px;&quot;&gt;Product&lt;/font&gt;" style="text;html=1;align=center;verticalAlign=middle;whiteSpace=wrap;overflow=hidden;fillColor=#e51400;fontColor=#ffffff;strokeColor=#B20000;" parent="1" vertex="1">
          <mxGeometry x="420" y="540" width="190" height="30" as="geometry" />
        </mxCell>
        <mxCell id="xIH687tK5126t1SRCQGh-3" value="&lt;font style=&quot;font-size: 20px;&quot;&gt;Product&lt;/font&gt;" style="text;html=1;align=center;verticalAlign=middle;whiteSpace=wrap;overflow=hidden;fillColor=#e51400;fontColor=#ffffff;strokeColor=#B20000;" parent="1" vertex="1">
          <mxGeometry x="860" y="660" width="210" height="30" as="geometry" />
        </mxCell>
        <mxCell id="xIH687tK5126t1SRCQGh-4" value="&lt;font style=&quot;font-size: 20px;&quot;&gt;Customer&lt;/font&gt;" style="text;html=1;align=center;verticalAlign=middle;whiteSpace=wrap;overflow=hidden;fillColor=#e51400;fontColor=#ffffff;strokeColor=#B20000;" parent="1" vertex="1">
          <mxGeometry x="875" y="460" width="190" height="30" as="geometry" />
        </mxCell>
        <mxCell id="xIH687tK5126t1SRCQGh-5" value="&lt;font style=&quot;font-size: 20px;&quot;&gt;Customer&lt;/font&gt;" style="text;html=1;align=center;verticalAlign=middle;whiteSpace=wrap;overflow=hidden;fillColor=#e51400;fontColor=#ffffff;strokeColor=#B20000;" parent="1" vertex="1">
          <mxGeometry x="410" y="390" width="190" height="30" as="geometry" />
        </mxCell>
        <mxCell id="xIH687tK5126t1SRCQGh-6" value="&lt;font style=&quot;font-size: 20px;&quot;&gt;Customer&lt;/font&gt;" style="text;html=1;align=center;verticalAlign=middle;whiteSpace=wrap;overflow=hidden;fillColor=#e51400;fontColor=#ffffff;strokeColor=#B20000;" parent="1" vertex="1">
          <mxGeometry x="875" y="300" width="195" height="30" as="geometry" />
        </mxCell>
        <mxCell id="xIH687tK5126t1SRCQGh-7" value="&lt;font style=&quot;font-size: 20px;&quot;&gt;Sales&lt;/font&gt;" style="text;html=1;align=center;verticalAlign=middle;whiteSpace=wrap;overflow=hidden;fillColor=#e51400;fontColor=#ffffff;strokeColor=#B20000;" parent="1" vertex="1">
          <mxGeometry x="20" y="470" width="210" height="30" as="geometry" />
        </mxCell>
      </root>
    </mxGraphModel>
  </diagram>
</mxfile>
